<?xml version="1.0" encoding="utf-8" standalone="no"?>
<!DOCTYPE svg PUBLIC "-//W3C//DTD SVG 1.1//EN"
  "http://www.w3.org/Graphics/SVG/1.1/DTD/svg11.dtd">
<!-- Created with matplotlib (https://matplotlib.org/) -->
<svg height="338.4pt" version="1.1" viewBox="0 0 451.038322 338.4" width="451.038322pt" xmlns="http://www.w3.org/2000/svg" xmlns:xlink="http://www.w3.org/1999/xlink">
 <metadata>
  <rdf:RDF xmlns:cc="http://creativecommons.org/ns#" xmlns:dc="http://purl.org/dc/elements/1.1/" xmlns:rdf="http://www.w3.org/1999/02/22-rdf-syntax-ns#">
   <cc:Work>
    <dc:type rdf:resource="http://purl.org/dc/dcmitype/StillImage"/>
    <dc:date>2023-10-02T14:18:49.234019</dc:date>
    <dc:format>image/svg+xml</dc:format>
    <dc:creator>
     <cc:Agent>
      <dc:title>Matplotlib v3.3.4, https://matplotlib.org/</dc:title>
     </cc:Agent>
    </dc:creator>
   </cc:Work>
  </rdf:RDF>
 </metadata>
 <defs>
  <style type="text/css">*{stroke-linecap:butt;stroke-linejoin:round;}</style>
 </defs>
 <g id="figure_1">
  <g id="patch_1">
   <path d="M 0 338.4 
L 451.038322 338.4 
L 451.038322 0 
L 0 0 
z
" style="fill:#ffffff;"/>
  </g>
  <g id="axes_1">
   <g id="patch_2">
    <path d="M 11.017937 331.2 
L 443.838322 331.2 
L 443.838322 7.2 
L 11.017937 7.2 
z
" style="fill:#ffffff;"/>
   </g>
   <g id="PathCollection_1">
    <path clip-path="url(#p6a3102d39b)" d="M 269.045474 147.343471 
C 269.771763 147.343471 270.468402 147.054914 270.981966 146.54135 
C 271.49553 146.027786 271.784087 145.331147 271.784087 144.604858 
C 271.784087 143.87857 271.49553 143.18193 270.981966 142.668367 
C 270.468402 142.154803 269.771763 141.866246 269.045474 141.866246 
C 268.319186 141.866246 267.622546 142.154803 267.108983 142.668367 
C 266.595419 143.18193 266.306862 143.87857 266.306862 144.604858 
C 266.306862 145.331147 266.595419 146.027786 267.108983 146.54135 
C 267.622546 147.054914 268.319186 147.343471 269.045474 147.343471 
z
"/>
   </g>
   <g id="PathCollection_2">
    <path clip-path="url(#p6a3102d39b)" d="M 393.897508 57.161285 
C 394.623797 57.161285 395.320436 56.872727 395.834 56.359164 
C 396.347564 55.8456 396.636121 55.148961 396.636121 54.422672 
C 396.636121 53.696383 396.347564 52.999744 395.834 52.48618 
C 395.320436 51.972617 394.623797 51.684059 393.897508 51.684059 
C 393.17122 51.684059 392.47458 51.972617 391.961017 52.48618 
C 391.447453 52.999744 391.158896 53.696383 391.158896 54.422672 
C 391.158896 55.148961 391.447453 55.8456 391.961017 56.359164 
C 392.47458 56.872727 393.17122 57.161285 393.897508 57.161285 
z
" style="fill:#ff0000;"/>
   </g>
   <g id="PathCollection_3">
    <path clip-path="url(#p6a3102d39b)" d="M 352.280164 92.687601 
C 353.006452 92.687601 353.703092 92.399043 354.216655 91.88548 
C 354.730219 91.371916 355.018776 90.675276 355.018776 89.948988 
C 355.018776 89.222699 354.730219 88.52606 354.216655 88.012496 
C 353.703092 87.498933 353.006452 87.210375 352.280164 87.210375 
C 351.553875 87.210375 350.857236 87.498933 350.343672 88.012496 
C 349.830108 88.52606 349.541551 89.222699 349.541551 89.948988 
C 349.541551 90.675276 349.830108 91.371916 350.343672 91.88548 
C 350.857236 92.399043 351.553875 92.687601 352.280164 92.687601 
z
" style="fill:#ff0000;"/>
   </g>
   <g id="PathCollection_4">
    <path clip-path="url(#p6a3102d39b)" d="M 285.692412 138.161285 
C 286.418701 138.161285 287.11534 137.872727 287.628904 137.359164 
C 288.142467 136.8456 288.431025 136.148961 288.431025 135.422672 
C 288.431025 134.696383 288.142467 133.999744 287.628904 133.48618 
C 287.11534 132.972617 286.418701 132.684059 285.692412 132.684059 
C 284.966124 132.684059 284.269484 132.972617 283.75592 133.48618 
C 283.242357 133.999744 282.953799 134.696383 282.953799 135.422672 
C 282.953799 136.148961 283.242357 136.8456 283.75592 137.359164 
C 284.269484 137.872727 284.966124 138.161285 285.692412 138.161285 
z
" style="fill:#ff0000;"/>
   </g>
   <g id="PathCollection_5">
    <path clip-path="url(#p6a3102d39b)" d="M 270.710168 146.464605 
C 271.436457 146.464605 272.133096 146.176047 272.64666 145.662484 
C 273.160223 145.14892 273.448781 144.452281 273.448781 143.725992 
C 273.448781 142.999703 273.160223 142.303064 272.64666 141.7895 
C 272.133096 141.275937 271.436457 140.987379 270.710168 140.987379 
C 269.983879 140.987379 269.28724 141.275937 268.773676 141.7895 
C 268.260113 142.303064 267.971555 142.999703 267.971555 143.725992 
C 267.971555 144.452281 268.260113 145.14892 268.773676 145.662484 
C 269.28724 146.176047 269.983879 146.464605 270.710168 146.464605 
z
" style="fill:#ff0000;"/>
   </g>
   <g id="matplotlib.axis_1">
    <g id="xtick_1">
     <g id="line2d_1">
      <defs>
       <path d="M 0 0 
L 0 3.5 
" id="m7c063c04ea" style="stroke:#000000;stroke-width:0.8;"/>
      </defs>
      <g>
       <use style="stroke:#000000;stroke-width:0.8;" x="19.341406" xlink:href="#m7c063c04ea" y="188.329555"/>
      </g>
     </g>
     <g id="text_1">
      <!-- −0.5 -->
      <g transform="translate(7.2 202.927992)scale(0.1 -0.1)">
       <defs>
        <path d="M 10.59375 35.5 
L 73.1875 35.5 
L 73.1875 27.203125 
L 10.59375 27.203125 
z
" id="DejaVuSans-8722"/>
        <path d="M 31.78125 66.40625 
Q 24.171875 66.40625 20.328125 58.90625 
Q 16.5 51.421875 16.5 36.375 
Q 16.5 21.390625 20.328125 13.890625 
Q 24.171875 6.390625 31.78125 6.390625 
Q 39.453125 6.390625 43.28125 13.890625 
Q 47.125 21.390625 47.125 36.375 
Q 47.125 51.421875 43.28125 58.90625 
Q 39.453125 66.40625 31.78125 66.40625 
z
M 31.78125 74.21875 
Q 44.046875 74.21875 50.515625 64.515625 
Q 56.984375 54.828125 56.984375 36.375 
Q 56.984375 17.96875 50.515625 8.265625 
Q 44.046875 -1.421875 31.78125 -1.421875 
Q 19.53125 -1.421875 13.0625 8.265625 
Q 6.59375 17.96875 6.59375 36.375 
Q 6.59375 54.828125 13.0625 64.515625 
Q 19.53125 74.21875 31.78125 74.21875 
z
" id="DejaVuSans-48"/>
        <path d="M 10.6875 12.40625 
L 21 12.40625 
L 21 0 
L 10.6875 0 
z
" id="DejaVuSans-46"/>
        <path d="M 10.796875 72.90625 
L 49.515625 72.90625 
L 49.515625 64.59375 
L 19.828125 64.59375 
L 19.828125 46.734375 
Q 21.96875 47.46875 24.109375 47.828125 
Q 26.265625 48.1875 28.421875 48.1875 
Q 40.625 48.1875 47.75 41.5 
Q 54.890625 34.8125 54.890625 23.390625 
Q 54.890625 11.625 47.5625 5.09375 
Q 40.234375 -1.421875 26.90625 -1.421875 
Q 22.3125 -1.421875 17.546875 -0.640625 
Q 12.796875 0.140625 7.71875 1.703125 
L 7.71875 11.625 
Q 12.109375 9.234375 16.796875 8.0625 
Q 21.484375 6.890625 26.703125 6.890625 
Q 35.15625 6.890625 40.078125 11.328125 
Q 45.015625 15.765625 45.015625 23.390625 
Q 45.015625 31 40.078125 35.4375 
Q 35.15625 39.890625 26.703125 39.890625 
Q 22.75 39.890625 18.8125 39.015625 
Q 14.890625 38.140625 10.796875 36.28125 
z
" id="DejaVuSans-53"/>
       </defs>
       <use xlink:href="#DejaVuSans-8722"/>
       <use x="83.789062" xlink:href="#DejaVuSans-48"/>
       <use x="147.412109" xlink:href="#DejaVuSans-46"/>
       <use x="179.199219" xlink:href="#DejaVuSans-53"/>
      </g>
     </g>
    </g>
    <g id="xtick_2">
     <g id="line2d_2">
      <g>
       <use style="stroke:#000000;stroke-width:0.8;" x="102.576096" xlink:href="#m7c063c04ea" y="188.329555"/>
      </g>
     </g>
    </g>
    <g id="xtick_3">
     <g id="line2d_3">
      <g>
       <use style="stroke:#000000;stroke-width:0.8;" x="185.810785" xlink:href="#m7c063c04ea" y="188.329555"/>
      </g>
     </g>
     <g id="text_2">
      <!-- 0.5 -->
      <g transform="translate(177.859222 202.927992)scale(0.1 -0.1)">
       <use xlink:href="#DejaVuSans-48"/>
       <use x="63.623047" xlink:href="#DejaVuSans-46"/>
       <use x="95.410156" xlink:href="#DejaVuSans-53"/>
      </g>
     </g>
    </g>
    <g id="xtick_4">
     <g id="line2d_4">
      <g>
       <use style="stroke:#000000;stroke-width:0.8;" x="269.045474" xlink:href="#m7c063c04ea" y="188.329555"/>
      </g>
     </g>
     <g id="text_3">
      <!-- 1.0 -->
      <g transform="translate(261.093912 202.927992)scale(0.1 -0.1)">
       <defs>
        <path d="M 12.40625 8.296875 
L 28.515625 8.296875 
L 28.515625 63.921875 
L 10.984375 60.40625 
L 10.984375 69.390625 
L 28.421875 72.90625 
L 38.28125 72.90625 
L 38.28125 8.296875 
L 54.390625 8.296875 
L 54.390625 0 
L 12.40625 0 
z
" id="DejaVuSans-49"/>
       </defs>
       <use xlink:href="#DejaVuSans-49"/>
       <use x="63.623047" xlink:href="#DejaVuSans-46"/>
       <use x="95.410156" xlink:href="#DejaVuSans-48"/>
      </g>
     </g>
    </g>
    <g id="xtick_5">
     <g id="line2d_5">
      <g>
       <use style="stroke:#000000;stroke-width:0.8;" x="352.280164" xlink:href="#m7c063c04ea" y="188.329555"/>
      </g>
     </g>
     <g id="text_4">
      <!-- 1.5 -->
      <g transform="translate(344.328601 202.927992)scale(0.1 -0.1)">
       <use xlink:href="#DejaVuSans-49"/>
       <use x="63.623047" xlink:href="#DejaVuSans-46"/>
       <use x="95.410156" xlink:href="#DejaVuSans-53"/>
      </g>
     </g>
    </g>
    <g id="xtick_6">
     <g id="line2d_6">
      <g>
       <use style="stroke:#000000;stroke-width:0.8;" x="435.514853" xlink:href="#m7c063c04ea" y="188.329555"/>
      </g>
     </g>
     <g id="text_5">
      <!-- 2.0 -->
      <g transform="translate(427.56329 202.927992)scale(0.1 -0.1)">
       <defs>
        <path d="M 19.1875 8.296875 
L 53.609375 8.296875 
L 53.609375 0 
L 7.328125 0 
L 7.328125 8.296875 
Q 12.9375 14.109375 22.625 23.890625 
Q 32.328125 33.6875 34.8125 36.53125 
Q 39.546875 41.84375 41.421875 45.53125 
Q 43.3125 49.21875 43.3125 52.78125 
Q 43.3125 58.59375 39.234375 62.25 
Q 35.15625 65.921875 28.609375 65.921875 
Q 23.96875 65.921875 18.8125 64.3125 
Q 13.671875 62.703125 7.8125 59.421875 
L 7.8125 69.390625 
Q 13.765625 71.78125 18.9375 73 
Q 24.125 74.21875 28.421875 74.21875 
Q 39.75 74.21875 46.484375 68.546875 
Q 53.21875 62.890625 53.21875 53.421875 
Q 53.21875 48.921875 51.53125 44.890625 
Q 49.859375 40.875 45.40625 35.40625 
Q 44.1875 33.984375 37.640625 27.21875 
Q 31.109375 20.453125 19.1875 8.296875 
z
" id="DejaVuSans-50"/>
       </defs>
       <use xlink:href="#DejaVuSans-50"/>
       <use x="63.623047" xlink:href="#DejaVuSans-46"/>
       <use x="95.410156" xlink:href="#DejaVuSans-48"/>
      </g>
     </g>
    </g>
    <g id="xtick_7">
     <g id="line2d_7">
      <defs>
       <path d="M 0 0 
L 0 2 
" id="m7596d9a6a0" style="stroke:#000000;stroke-width:0.6;"/>
      </defs>
      <g>
       <use style="stroke:#000000;stroke-width:0.6;" x="35.988344" xlink:href="#m7596d9a6a0" y="188.329555"/>
      </g>
     </g>
    </g>
    <g id="xtick_8">
     <g id="line2d_8">
      <g>
       <use style="stroke:#000000;stroke-width:0.6;" x="52.635282" xlink:href="#m7596d9a6a0" y="188.329555"/>
      </g>
     </g>
    </g>
    <g id="xtick_9">
     <g id="line2d_9">
      <g>
       <use style="stroke:#000000;stroke-width:0.6;" x="69.28222" xlink:href="#m7596d9a6a0" y="188.329555"/>
      </g>
     </g>
    </g>
    <g id="xtick_10">
     <g id="line2d_10">
      <g>
       <use style="stroke:#000000;stroke-width:0.6;" x="85.929158" xlink:href="#m7596d9a6a0" y="188.329555"/>
      </g>
     </g>
    </g>
    <g id="xtick_11">
     <g id="line2d_11">
      <g>
       <use style="stroke:#000000;stroke-width:0.6;" x="119.223033" xlink:href="#m7596d9a6a0" y="188.329555"/>
      </g>
     </g>
    </g>
    <g id="xtick_12">
     <g id="line2d_12">
      <g>
       <use style="stroke:#000000;stroke-width:0.6;" x="135.869971" xlink:href="#m7596d9a6a0" y="188.329555"/>
      </g>
     </g>
    </g>
    <g id="xtick_13">
     <g id="line2d_13">
      <g>
       <use style="stroke:#000000;stroke-width:0.6;" x="152.516909" xlink:href="#m7596d9a6a0" y="188.329555"/>
      </g>
     </g>
    </g>
    <g id="xtick_14">
     <g id="line2d_14">
      <g>
       <use style="stroke:#000000;stroke-width:0.6;" x="169.163847" xlink:href="#m7596d9a6a0" y="188.329555"/>
      </g>
     </g>
    </g>
    <g id="xtick_15">
     <g id="line2d_15">
      <g>
       <use style="stroke:#000000;stroke-width:0.6;" x="202.457723" xlink:href="#m7596d9a6a0" y="188.329555"/>
      </g>
     </g>
    </g>
    <g id="xtick_16">
     <g id="line2d_16">
      <g>
       <use style="stroke:#000000;stroke-width:0.6;" x="219.104661" xlink:href="#m7596d9a6a0" y="188.329555"/>
      </g>
     </g>
    </g>
    <g id="xtick_17">
     <g id="line2d_17">
      <g>
       <use style="stroke:#000000;stroke-width:0.6;" x="235.751599" xlink:href="#m7596d9a6a0" y="188.329555"/>
      </g>
     </g>
    </g>
    <g id="xtick_18">
     <g id="line2d_18">
      <g>
       <use style="stroke:#000000;stroke-width:0.6;" x="252.398536" xlink:href="#m7596d9a6a0" y="188.329555"/>
      </g>
     </g>
    </g>
    <g id="xtick_19">
     <g id="line2d_19">
      <g>
       <use style="stroke:#000000;stroke-width:0.6;" x="285.692412" xlink:href="#m7596d9a6a0" y="188.329555"/>
      </g>
     </g>
    </g>
    <g id="xtick_20">
     <g id="line2d_20">
      <g>
       <use style="stroke:#000000;stroke-width:0.6;" x="302.33935" xlink:href="#m7596d9a6a0" y="188.329555"/>
      </g>
     </g>
    </g>
    <g id="xtick_21">
     <g id="line2d_21">
      <g>
       <use style="stroke:#000000;stroke-width:0.6;" x="318.986288" xlink:href="#m7596d9a6a0" y="188.329555"/>
      </g>
     </g>
    </g>
    <g id="xtick_22">
     <g id="line2d_22">
      <g>
       <use style="stroke:#000000;stroke-width:0.6;" x="335.633226" xlink:href="#m7596d9a6a0" y="188.329555"/>
      </g>
     </g>
    </g>
    <g id="xtick_23">
     <g id="line2d_23">
      <g>
       <use style="stroke:#000000;stroke-width:0.6;" x="368.927102" xlink:href="#m7596d9a6a0" y="188.329555"/>
      </g>
     </g>
    </g>
    <g id="xtick_24">
     <g id="line2d_24">
      <g>
       <use style="stroke:#000000;stroke-width:0.6;" x="385.574039" xlink:href="#m7596d9a6a0" y="188.329555"/>
      </g>
     </g>
    </g>
    <g id="xtick_25">
     <g id="line2d_25">
      <g>
       <use style="stroke:#000000;stroke-width:0.6;" x="402.220977" xlink:href="#m7596d9a6a0" y="188.329555"/>
      </g>
     </g>
    </g>
    <g id="xtick_26">
     <g id="line2d_26">
      <g>
       <use style="stroke:#000000;stroke-width:0.6;" x="418.867915" xlink:href="#m7596d9a6a0" y="188.329555"/>
      </g>
     </g>
    </g>
   </g>
   <g id="matplotlib.axis_2">
    <g id="ytick_1">
     <g id="line2d_27">
      <defs>
       <path d="M 0 0 
L -3.5 0 
" id="m17340eef4b" style="stroke:#000000;stroke-width:0.8;"/>
      </defs>
      <g>
       <use style="stroke:#000000;stroke-width:0.8;" x="102.576096" xlink:href="#m17340eef4b" y="319.503644"/>
      </g>
     </g>
     <g id="text_6">
      <!-- −3 -->
      <g transform="translate(80.833908 323.302862)scale(0.1 -0.1)">
       <defs>
        <path d="M 40.578125 39.3125 
Q 47.65625 37.796875 51.625 33 
Q 55.609375 28.21875 55.609375 21.1875 
Q 55.609375 10.40625 48.1875 4.484375 
Q 40.765625 -1.421875 27.09375 -1.421875 
Q 22.515625 -1.421875 17.65625 -0.515625 
Q 12.796875 0.390625 7.625 2.203125 
L 7.625 11.71875 
Q 11.71875 9.328125 16.59375 8.109375 
Q 21.484375 6.890625 26.8125 6.890625 
Q 36.078125 6.890625 40.9375 10.546875 
Q 45.796875 14.203125 45.796875 21.1875 
Q 45.796875 27.640625 41.28125 31.265625 
Q 36.765625 34.90625 28.71875 34.90625 
L 20.21875 34.90625 
L 20.21875 43.015625 
L 29.109375 43.015625 
Q 36.375 43.015625 40.234375 45.921875 
Q 44.09375 48.828125 44.09375 54.296875 
Q 44.09375 59.90625 40.109375 62.90625 
Q 36.140625 65.921875 28.71875 65.921875 
Q 24.65625 65.921875 20.015625 65.03125 
Q 15.375 64.15625 9.8125 62.3125 
L 9.8125 71.09375 
Q 15.4375 72.65625 20.34375 73.4375 
Q 25.25 74.21875 29.59375 74.21875 
Q 40.828125 74.21875 47.359375 69.109375 
Q 53.90625 64.015625 53.90625 55.328125 
Q 53.90625 49.265625 50.4375 45.09375 
Q 46.96875 40.921875 40.578125 39.3125 
z
" id="DejaVuSans-51"/>
       </defs>
       <use xlink:href="#DejaVuSans-8722"/>
       <use x="83.789062" xlink:href="#DejaVuSans-51"/>
      </g>
     </g>
    </g>
    <g id="ytick_2">
     <g id="line2d_28">
      <g>
       <use style="stroke:#000000;stroke-width:0.8;" x="102.576096" xlink:href="#m17340eef4b" y="275.778947"/>
      </g>
     </g>
     <g id="text_7">
      <!-- −2 -->
      <g transform="translate(80.833908 279.578166)scale(0.1 -0.1)">
       <use xlink:href="#DejaVuSans-8722"/>
       <use x="83.789062" xlink:href="#DejaVuSans-50"/>
      </g>
     </g>
    </g>
    <g id="ytick_3">
     <g id="line2d_29">
      <g>
       <use style="stroke:#000000;stroke-width:0.8;" x="102.576096" xlink:href="#m17340eef4b" y="232.054251"/>
      </g>
     </g>
     <g id="text_8">
      <!-- −1 -->
      <g transform="translate(80.833908 235.85347)scale(0.1 -0.1)">
       <use xlink:href="#DejaVuSans-8722"/>
       <use x="83.789062" xlink:href="#DejaVuSans-49"/>
      </g>
     </g>
    </g>
    <g id="ytick_4">
     <g id="line2d_30">
      <g>
       <use style="stroke:#000000;stroke-width:0.8;" x="102.576096" xlink:href="#m17340eef4b" y="188.329555"/>
      </g>
     </g>
    </g>
    <g id="ytick_5">
     <g id="line2d_31">
      <g>
       <use style="stroke:#000000;stroke-width:0.8;" x="102.576096" xlink:href="#m17340eef4b" y="144.604858"/>
      </g>
     </g>
     <g id="text_9">
      <!-- 1 -->
      <g transform="translate(89.213596 148.404077)scale(0.1 -0.1)">
       <use xlink:href="#DejaVuSans-49"/>
      </g>
     </g>
    </g>
    <g id="ytick_6">
     <g id="line2d_32">
      <g>
       <use style="stroke:#000000;stroke-width:0.8;" x="102.576096" xlink:href="#m17340eef4b" y="100.880162"/>
      </g>
     </g>
     <g id="text_10">
      <!-- 2 -->
      <g transform="translate(89.213596 104.679381)scale(0.1 -0.1)">
       <use xlink:href="#DejaVuSans-50"/>
      </g>
     </g>
    </g>
    <g id="ytick_7">
     <g id="line2d_33">
      <g>
       <use style="stroke:#000000;stroke-width:0.8;" x="102.576096" xlink:href="#m17340eef4b" y="57.155466"/>
      </g>
     </g>
     <g id="text_11">
      <!-- 3 -->
      <g transform="translate(89.213596 60.954684)scale(0.1 -0.1)">
       <use xlink:href="#DejaVuSans-51"/>
      </g>
     </g>
    </g>
    <g id="ytick_8">
     <g id="line2d_34">
      <g>
       <use style="stroke:#000000;stroke-width:0.8;" x="102.576096" xlink:href="#m17340eef4b" y="13.430769"/>
      </g>
     </g>
     <g id="text_12">
      <!-- 4 -->
      <g transform="translate(89.213596 17.229988)scale(0.1 -0.1)">
       <defs>
        <path d="M 37.796875 64.3125 
L 12.890625 25.390625 
L 37.796875 25.390625 
z
M 35.203125 72.90625 
L 47.609375 72.90625 
L 47.609375 25.390625 
L 58.015625 25.390625 
L 58.015625 17.1875 
L 47.609375 17.1875 
L 47.609375 0 
L 37.796875 0 
L 37.796875 17.1875 
L 4.890625 17.1875 
L 4.890625 26.703125 
z
" id="DejaVuSans-52"/>
       </defs>
       <use xlink:href="#DejaVuSans-52"/>
      </g>
     </g>
    </g>
    <g id="ytick_9">
     <g id="line2d_35">
      <defs>
       <path d="M 0 0 
L -2 0 
" id="me56e692495" style="stroke:#000000;stroke-width:0.6;"/>
      </defs>
      <g>
       <use style="stroke:#000000;stroke-width:0.6;" x="102.576096" xlink:href="#me56e692495" y="328.248583"/>
      </g>
     </g>
    </g>
    <g id="ytick_10">
     <g id="line2d_36">
      <g>
       <use style="stroke:#000000;stroke-width:0.6;" x="102.576096" xlink:href="#me56e692495" y="310.758704"/>
      </g>
     </g>
    </g>
    <g id="ytick_11">
     <g id="line2d_37">
      <g>
       <use style="stroke:#000000;stroke-width:0.6;" x="102.576096" xlink:href="#me56e692495" y="302.013765"/>
      </g>
     </g>
    </g>
    <g id="ytick_12">
     <g id="line2d_38">
      <g>
       <use style="stroke:#000000;stroke-width:0.6;" x="102.576096" xlink:href="#me56e692495" y="293.268826"/>
      </g>
     </g>
    </g>
    <g id="ytick_13">
     <g id="line2d_39">
      <g>
       <use style="stroke:#000000;stroke-width:0.6;" x="102.576096" xlink:href="#me56e692495" y="284.523887"/>
      </g>
     </g>
    </g>
    <g id="ytick_14">
     <g id="line2d_40">
      <g>
       <use style="stroke:#000000;stroke-width:0.6;" x="102.576096" xlink:href="#me56e692495" y="267.034008"/>
      </g>
     </g>
    </g>
    <g id="ytick_15">
     <g id="line2d_41">
      <g>
       <use style="stroke:#000000;stroke-width:0.6;" x="102.576096" xlink:href="#me56e692495" y="258.289069"/>
      </g>
     </g>
    </g>
    <g id="ytick_16">
     <g id="line2d_42">
      <g>
       <use style="stroke:#000000;stroke-width:0.6;" x="102.576096" xlink:href="#me56e692495" y="249.54413"/>
      </g>
     </g>
    </g>
    <g id="ytick_17">
     <g id="line2d_43">
      <g>
       <use style="stroke:#000000;stroke-width:0.6;" x="102.576096" xlink:href="#me56e692495" y="240.79919"/>
      </g>
     </g>
    </g>
    <g id="ytick_18">
     <g id="line2d_44">
      <g>
       <use style="stroke:#000000;stroke-width:0.6;" x="102.576096" xlink:href="#me56e692495" y="223.309312"/>
      </g>
     </g>
    </g>
    <g id="ytick_19">
     <g id="line2d_45">
      <g>
       <use style="stroke:#000000;stroke-width:0.6;" x="102.576096" xlink:href="#me56e692495" y="214.564372"/>
      </g>
     </g>
    </g>
    <g id="ytick_20">
     <g id="line2d_46">
      <g>
       <use style="stroke:#000000;stroke-width:0.6;" x="102.576096" xlink:href="#me56e692495" y="205.819433"/>
      </g>
     </g>
    </g>
    <g id="ytick_21">
     <g id="line2d_47">
      <g>
       <use style="stroke:#000000;stroke-width:0.6;" x="102.576096" xlink:href="#me56e692495" y="197.074494"/>
      </g>
     </g>
    </g>
    <g id="ytick_22">
     <g id="line2d_48">
      <g>
       <use style="stroke:#000000;stroke-width:0.6;" x="102.576096" xlink:href="#me56e692495" y="179.584615"/>
      </g>
     </g>
    </g>
    <g id="ytick_23">
     <g id="line2d_49">
      <g>
       <use style="stroke:#000000;stroke-width:0.6;" x="102.576096" xlink:href="#me56e692495" y="170.839676"/>
      </g>
     </g>
    </g>
    <g id="ytick_24">
     <g id="line2d_50">
      <g>
       <use style="stroke:#000000;stroke-width:0.6;" x="102.576096" xlink:href="#me56e692495" y="162.094737"/>
      </g>
     </g>
    </g>
    <g id="ytick_25">
     <g id="line2d_51">
      <g>
       <use style="stroke:#000000;stroke-width:0.6;" x="102.576096" xlink:href="#me56e692495" y="153.349798"/>
      </g>
     </g>
    </g>
    <g id="ytick_26">
     <g id="line2d_52">
      <g>
       <use style="stroke:#000000;stroke-width:0.6;" x="102.576096" xlink:href="#me56e692495" y="135.859919"/>
      </g>
     </g>
    </g>
    <g id="ytick_27">
     <g id="line2d_53">
      <g>
       <use style="stroke:#000000;stroke-width:0.6;" x="102.576096" xlink:href="#me56e692495" y="127.11498"/>
      </g>
     </g>
    </g>
    <g id="ytick_28">
     <g id="line2d_54">
      <g>
       <use style="stroke:#000000;stroke-width:0.6;" x="102.576096" xlink:href="#me56e692495" y="118.37004"/>
      </g>
     </g>
    </g>
    <g id="ytick_29">
     <g id="line2d_55">
      <g>
       <use style="stroke:#000000;stroke-width:0.6;" x="102.576096" xlink:href="#me56e692495" y="109.625101"/>
      </g>
     </g>
    </g>
    <g id="ytick_30">
     <g id="line2d_56">
      <g>
       <use style="stroke:#000000;stroke-width:0.6;" x="102.576096" xlink:href="#me56e692495" y="92.135223"/>
      </g>
     </g>
    </g>
    <g id="ytick_31">
     <g id="line2d_57">
      <g>
       <use style="stroke:#000000;stroke-width:0.6;" x="102.576096" xlink:href="#me56e692495" y="83.390283"/>
      </g>
     </g>
    </g>
    <g id="ytick_32">
     <g id="line2d_58">
      <g>
       <use style="stroke:#000000;stroke-width:0.6;" x="102.576096" xlink:href="#me56e692495" y="74.645344"/>
      </g>
     </g>
    </g>
    <g id="ytick_33">
     <g id="line2d_59">
      <g>
       <use style="stroke:#000000;stroke-width:0.6;" x="102.576096" xlink:href="#me56e692495" y="65.900405"/>
      </g>
     </g>
    </g>
    <g id="ytick_34">
     <g id="line2d_60">
      <g>
       <use style="stroke:#000000;stroke-width:0.6;" x="102.576096" xlink:href="#me56e692495" y="48.410526"/>
      </g>
     </g>
    </g>
    <g id="ytick_35">
     <g id="line2d_61">
      <g>
       <use style="stroke:#000000;stroke-width:0.6;" x="102.576096" xlink:href="#me56e692495" y="39.665587"/>
      </g>
     </g>
    </g>
    <g id="ytick_36">
     <g id="line2d_62">
      <g>
       <use style="stroke:#000000;stroke-width:0.6;" x="102.576096" xlink:href="#me56e692495" y="30.920648"/>
      </g>
     </g>
    </g>
    <g id="ytick_37">
     <g id="line2d_63">
      <g>
       <use style="stroke:#000000;stroke-width:0.6;" x="102.576096" xlink:href="#me56e692495" y="22.175709"/>
      </g>
     </g>
    </g>
   </g>
   <g id="line2d_64">
    <path clip-path="url(#p6a3102d39b)" d="M 19.341406 177.398381 
L 27.867032 179.523028 
L 35.554673 181.24218 
L 43.979153 182.911941 
L 53.477067 184.525875 
L 61.431526 185.658498 
L 70.599533 186.716231 
L 79.497413 187.489166 
L 87.666876 187.978829 
L 96.042124 188.262193 
L 104.912034 188.320945 
L 113.299403 188.148122 
L 121.72284 187.751128 
L 130.232607 187.122706 
L 139.155359 186.218361 
L 146.126995 185.336929 
L 156.414783 183.756072 
L 164.889922 182.20285 
L 173.533047 180.385395 
L 182.089891 178.353862 
L 190.018807 176.265166 
L 200.289836 173.264547 
L 210.269587 170.030149 
L 218.818487 167.009557 
L 228.558368 163.287096 
L 238.56063 159.152791 
L 248.008034 154.957905 
L 258.005537 150.212033 
L 268.306589 144.992147 
L 276.759135 140.458851 
L 286.642317 134.872346 
L 294.416719 130.261237 
L 303.358715 124.721763 
L 313.868841 117.888272 
L 321.642821 112.6095 
L 330.859102 106.104296 
L 340.099195 99.313203 
L 349.507631 92.121552 
L 359.677304 84.033875 
L 369.426769 75.973963 
L 379.073852 67.703448 
L 389.064754 58.828605 
L 399.630001 49.100903 
L 407.646457 41.484908 
L 417.970474 31.37787 
L 427.004294 22.257991 
L 435.514853 13.430769 
L 435.514853 13.430769 
" style="fill:none;stroke:#000000;stroke-linecap:square;"/>
   </g>
   <g id="line2d_65">
    <path clip-path="url(#p6a3102d39b)" d="M 19.341406 275.778947 
L 435.514853 57.155466 
L 435.514853 57.155466 
" style="fill:none;stroke:#000000;stroke-linecap:square;"/>
   </g>
   <g id="line2d_66">
    <path clip-path="url(#p6a3102d39b)" d="M 19.341406 324.969231 
L 435.514853 24.361943 
L 435.514853 24.361943 
" style="fill:none;stroke:#ff0000;stroke-dasharray:3.7,1.6;stroke-dashoffset:0;"/>
   </g>
   <g id="line2d_67">
    <path clip-path="url(#p6a3102d39b)" d="M 19.341406 308.57247 
L 435.514853 35.293117 
L 435.514853 35.293117 
" style="fill:none;stroke:#ff0000;stroke-dasharray:3.7,1.6;stroke-dashoffset:0;"/>
   </g>
   <g id="line2d_68">
    <path clip-path="url(#p6a3102d39b)" d="M 19.341406 282.337652 
L 435.514853 52.782996 
L 435.514853 52.782996 
" style="fill:none;stroke:#ff0000;stroke-dasharray:3.7,1.6;stroke-dashoffset:0;"/>
   </g>
   <g id="line2d_69">
    <path clip-path="url(#p6a3102d39b)" d="M 19.341406 276.434818 
L 435.514853 56.718219 
L 435.514853 56.718219 
" style="fill:none;stroke:#ff0000;stroke-dasharray:3.7,1.6;stroke-dashoffset:0;"/>
   </g>
   <g id="patch_3">
    <path d="M 102.576096 331.2 
L 102.576096 7.2 
" style="fill:none;stroke:#000000;stroke-linecap:square;stroke-linejoin:miter;stroke-width:0.8;"/>
   </g>
   <g id="patch_4">
    <path d="M 11.017937 188.329555 
L 443.838322 188.329555 
" style="fill:none;stroke:#000000;stroke-linecap:square;stroke-linejoin:miter;stroke-width:0.8;"/>
   </g>
  </g>
 </g>
 <defs>
  <clipPath id="p6a3102d39b">
   <rect height="324" width="432.820385" x="11.017937" y="7.2"/>
  </clipPath>
 </defs>
</svg>
